/* XPM */
static char *_5451e9604dc4900f5b62803e6f08c43[] = {
/* columns rows colors chars-per-pixel */
"58 58 139 2 ",
"   c #4C3E17",
".  c #4F4017",
"X  c #4F4018",
"o  c #564517",
"O  c #594717",
"+  c #5A4817",
"@  c #524319",
"#  c #5E4B19",
"$  c #614D19",
"%  c #65511C",
"&  c #6B551B",
"*  c #6F591E",
"=  c #745C1D",
"-  c #7B621F",
";  c #7E6522",
":  c #757D76",
">  c #816720",
",  c #846A22",
"<  c #896E24",
"1  c #8E7225",
"2  c #937525",
"3  c #977826",
"4  c #9C7D27",
"5  c #947728",
"6  c #9E7F29",
"7  c #7D806B",
"8  c #A38229",
"9  c #AA872A",
"0  c #AC8A2C",
"q  c #B38E2C",
"w  c #B5912D",
"e  c #BB952E",
"r  c #BF982F",
"t  c #B69332",
"y  c #B99532",
"u  c #BE9932",
"i  c #C0992F",
"p  c #C49C32",
"a  c #C89F31",
"s  c #CBA335",
"d  c #D1A736",
"f  c #D4AA35",
"g  c #DAAE36",
"h  c #D6AD3A",
"j  c #DFB237",
"k  c #DBB03A",
"l  c #E1B337",
"z  c #E4B638",
"x  c #E6B839",
"c  c #ECBC3A",
"v  c #F0BF3B",
"b  c #F4C33C",
"n  c #F8C63D",
"m  c #9D8B4D",
"M  c #A58D44",
"N  c #AC9C5C",
"B  c #B39E57",
"V  c #BEA34F",
"C  c #B6A056",
"Z  c #BCA350",
"A  c #BFA85A",
"S  c #828166",
"D  c #9E9667",
"F  c #94916E",
"G  c #9A936A",
"H  c #8C8E75",
"J  c #83897C",
"K  c #929070",
"L  c #9E9E7D",
"P  c #A59862",
"I  c #A49F77",
"U  c #A19F7A",
"Y  c #ADA26E",
"T  c #B5A565",
"R  c #B9A660",
"E  c #A6A175",
"W  c #AAA171",
"Q  c #CCAA45",
"!  c #C2A54C",
"~  c #CAAB4C",
"^  c #D2AE43",
"/  c #C4AA55",
"(  c #C8AB50",
")  c #C0A859",
"_  c #3F6BAD",
"`  c #3466B7",
"'  c #3668B5",
"]  c #3868B4",
"[  c #3065BA",
"{  c #5B748F",
"}  c #4D6F9D",
"|  c #4F719F",
" . c #5E7997",
".. c #54749F",
"X. c #59779B",
"o. c #5B789A",
"O. c #687982",
"+. c #6C7F8D",
"@. c #637B93",
"#. c #456EAA",
"$. c #4B71A5",
"%. c #5274A0",
"&. c #326ECE",
"*. c #3F76CB",
"=. c #3577E0",
"-. c #377DEE",
";. c #397FED",
":. c #377EF0",
">. c #7B8681",
",. c #718189",
"<. c #738690",
"1. c #728FAB",
"2. c #7B93A5",
"3. c #7491AC",
"4. c #7892A8",
"5. c #6285B1",
"6. c #6C8FB5",
"7. c #668CBC",
"8. c #7090B1",
"9. c #3F80E7",
"0. c #3F81E8",
"q. c #5D8AC6",
"w. c #5587CF",
"e. c #5788CD",
"r. c #5A89CA",
"t. c #4D83D4",
"y. c #4783DF",
"u. c #4A84DA",
"i. c #5186D3",
"p. c #618BC1",
"a. c #4381E2",
"s. c #8F998E",
"d. c #979C85",
"f. c #9A9D83",
"g. c #919A8B",
"h. c #899795",
"j. c #8D9890",
"k. c #84969B",
"l. c None",
/* pixels */
"l.l.l.l.l.l.l.l.l.l.l.l.l.l.l.l.l.l.l.l.l.l.l.l.l.l.l.l.l.l.l.l.l.l.l.l.l.l.l.l.l.l.l.l.l.l.l.l.l.l.l.l.l.l.l.l.l.l.",
"l.l.l.l.l.l.l.l.l.l.l.l.l.l.l.l.l.l.l.l.l.l.l.l.l.l.l.l.l.l.l.l.l.l.l.l.l.l.l.l.l.l.l.l.l.l.l.l.l.l.l.l.l.l.l.l.l.l.",
"l.l.l.:.:.:.:.:.:.:.:.:.:.:.:.:.:.:.:.:.:.:.:.:.:.:.:.:.:.:.:.:.:.:.:.:.:.:.:.:.:.:.:.:.:.:.:.:.:.:.:.:.:.:.l.l.l.l.",
"l.l.:.:.:.:.:.:.:.:.:.:.:.:.:.:.:.:.:.:.:.:.:.:.:.:.:.:.:.:.:.:.:.:.:.:.:.:.:.:.:.:.:.:.:.:.:.:.:.:.:.:.:.:.:.l.l.l.",
"l.l.:.:.:.:.:.:.:.:.:.:.:.:.:.:.:.:.:.:.:.:.:.:.:.:.:.:.:.:.:.:.:.:.:.:.:.:.:.:.:.:.:.:.:.:.:.:.:.:.:.:.:.:.:.l.l.l.",
"l.l.:.:.:.:.:.:.:.:.:.:.:.:.:.:.:.:.:.:.:.:.:.;.:.:.:.:.:.:.:.:.:.:.:.:.:.:.:.:.:.:.:.:.:.:.:.:.:.:.:.:.:.:.:.l.l.l.",
"l.l.:.:.:.:.:.:.:.:.:.:.:.:.:.:.:.:.:.:.:.:.a.7.a.:.:.:.:.:.:.:.:.:.:.:.:.:.:.:.:.:.:.:.:.:.:.:.:.:.:.:.:.:.:.l.l.l.",
"l.l.:.:.:.:.:.:.:.:.:.:.:.:.:.:.:.:.:.:.9.k.^ l E :.:.a.I d.4.w.0.:.:.:.:.:.:.:.:.:.:.:.:.:.:.:.:.:.:.:.:.:.:.l.l.l.",
"l.l.:.:.:.:.:.:.:.:.:.:.:.:.:.:.:.0.:.p.k j j j j u.:.4.l l j j ^ 2.0.0.0.:.:.:.:.:.:.:.:.:.:.:.:.:.:.:.:.:.:.l.l.l.",
"l.l.:.:.:.:.:.:.:.:.:.:.:.:.:.:.:.a.j.h j x b b l g.:.f.j z z l j j j A s.7.u.0.:.:.:.:.:.:.:.:.:.:.:.:.:.:.:.l.l.l.",
"l.l.:.:.:.:.:.:.:.:.:.:.:.:.:.u.U j j c n n e v x y 5./ x n n n b c c z j j j ( I k.e.0.:.:.:.:.:.:.:.:.:.:.:.l.l.l.",
"l.l.:.:.:.:.:.:.:.:.:.:.:.:.7.^ j z b n n n s 5 a y y l c n n n n n n n n c z j j j j h f.u.:.-.:.:.:.:.:.:.:.l.l.l.",
"l.l.:.:.:.:.:.:.:.:.:.:.t.Y j l c n n n n n y 6 t u s j v n n n n n n n n n n b b x z j j g / U 8.i.;.:.:.:.:.l.l.l.",
"l.l.:.:.:.:.:.:.:.:.7.Y k z v b n n n n n b p s s s j j n n n n n n n n n n n n n n n b v v z l l l ^ W 1.;.:.l.l.l.",
"l.l.:.:.:.:.:.:.:.4.l j z n n n n n n n n y X s s d j z n n n n n n n n n n n n n n n n n n n n c z j j j *.:.l.l.l.",
"l.l.:.:.:.:.-.6.T j z v n n n n n n n b h $   5 s d l z n n n n n n n n b c n n n n n n n n n n n n c l ^ [ =.l.l.l.",
"l.l.:.:.0.6.T j x c n n n n n n n n b s s , X @ p h j b b n n n n f 8 = # + $ - 8 j b n n n n x 4 n c j >.[ [ l.l.l.",
"l.l.:.:.k.j j c n n n n n n n n 8 q h s s 6 X   0 k k b n n n n g # + O O + O O O $ l n n n n q r n c j ] [ [ l.l.l.",
"l.l.:.:.j.j z n n n n n n n n w o X 1 s s y     < j z n n n n d - * O + = > = O O O = j b n b f 6 n z Z [ [ [ l.l.l.",
"l.l.0.0.a.( j n n n n n n n n s X     < s s %   < j c n c c z f j g 2 g n n b g 2 O O $ j n n n v n j K [ [ [ l.l.l.",
"l.l.:.:.:.i.j c n n b 6 c n n s         , s , X 6 j x j j j j j j j k k n n n n n 2 O O 4 n n n n v j +.[ [ [ l.l.l.",
"l.l.:.:.:.:.U z n l * + 1 b h s #   X   @ 6 u w f j j j j x c b c j j s x n n n n f O O = n n n n z j #.[ [ [ l.l.l.",
"l.l.:.:.:.:.u.h l b 2 O o , s s 1 , 0 s k j j j x x c n n n b f n j j d s k b n n n = O O v n n b j Q [ [ [ [ l.l.l.",
"l.l.:.:.:.:.0.E j v b = X @ 9 k k j j j j z c b n n n n n n f = n x j f s s k n n n , O O l n n v j P [ [ [ [ l.l.l.",
"l.l.:.:.:.:.:.e.k z c g e g j j l l x v b b n n n n n n n n a 9 j x l g s s s z n n - O o z n n z j J [ [ [ [ l.l.l.",
"l.l.:.:.:.:.a.U h j j j j x c c b n n n n n n n n n n n n n w e 9 b j j s s s s j x # O $ n n n l j ..[ [ [ [ l.l.l.",
"l.l.:.:.:.:.8.l j j l v n n n n n n n n n n n n n n n n n b n n v b j j d s s s s 8 O O < n n n j k ` [ [ [ [ l.l.l.",
"l.l.:.:.:.:.7.l j v n n n n n n n n n n n n n n n n n v i 8 i n n n z j d s s s 0 # @ + w n n b j G [ [ [ [ [ l.l.l.",
"l.l.:.:.:.:.0.k j b n n n n n n n n n n b n n n n n b 9 + O 8 b n n b l s M 6 *       < b n n x k #.[ [ [ [ [ l.l.l.",
"l.l.:.:.:.:.:.) j v n n n n n n n n n n v 0 d b n n n q O O 4 n n n n z s           ; s k n n z ! [ [ [ [ [ [ l.l.l.",
"l.l.:.:.:.:.:.f.j x n n n n n n n n n e O O > n n n n w O O 4 n n n n x j #     X ; p s s z b l G [ [ [ [ [ [ l.l.l.",
"l.l.:.:.:.:.:.2.l l n n b v d n n n n w O + + e n n b e O + 2 n n n n x j 3 X , p s s s s d z l >.[ [ [ [ [ [ l.l.l.",
"l.l.:.:.:.:.:.q.l l n v , # + g n n n w + + O # j n n r O O 1 n n n n b j g s s s s s s s s y s X.[ [ [ [ [ [ l.l.l.",
"l.l.:.:.:.:.:.;.( j v n 2 O O < n n n q O O O O > n b a O + < b n n n b j j d s s s s s s s t t [ [ [ [ [ [ [ l.l.l.",
"l.l.:.:.:.:.:.:.h.l c n d O O O x n b q O O O O + g n a + + , n n n n n x j f s s s s s Q p t m [ [ [ [ [ [ [ l.l.l.",
"l.l.:.:.:.:.:.:.u.k z n b = O O 9 n n q O O $ + + 2 n d + + - n n n n n x j f u p s s s s u t 7 [ [ [ [ [ [ [ l.l.l.",
"l.l.:.:.:.:.:.:.-.R l n n p O O $ j n 0 O + 9 & + O 0 f + + - n n n n n v j g w t y y u u y t { [ [ [ [ [ [ [ l.l.l.",
"l.l.:.:.:.:.:.:.-.f.j v n n = O + = n 9 O + r f O O + r O + = n n n n n b j j } : M w t t t t _ [ [ [ [ [ [ [ l.l.l.",
"l.l.:.:.:.:.:.:.:.3.j z n n j $ + O a 9 O O r n 1 + + - O O & n n n n n b l j @.[ [ } O.S m : [ [ [ [ [ [ [ [ l.l.l.",
"l.l.:.:.:.:.:.:.-.u.j j n n n 8 + + = 8 O O i n z $ O O O O & b n n n n n b l F [ [ [ [ [ [ [ [ [ [ [ [ [ [ [ l.l.l.",
"l.l.:.:.:.:.:.:.:.:.Q l v n n z + O O , O O i n n 3 O O O + $ n n n n n n n l C [ [ [ [ [ [ [ [ [ [ [ [ [ [ [ l.l.l.",
"l.l.:.:.:.:.:.:.:.:.Y j c n n n , + O + O O a n n g # + O + # n n n n n n b x h ] [ [ [ [ [ [ [ [ [ [ [ [ [ [ l.l.l.",
"l.l.:.:.:.:.:.:.:.:.k.l z n n n g + O O O O a b n n f $ O O O n n n n n n n x l J [ [ [ [ [ [ [ [ [ [ [ [ [ [ l.l.l.",
"l.l.:.:.:.:.:.:.:.:.q.k j n n n n 3 O O O O a b n n n 3 O O O v n n n n n n v j ~ [ [ [ [ [ [ [ [ [ [ [ [ [ [ l.l.l.",
"l.l.:.:.:.:.:.:.:.:.a.h j b n n n b & O O + a n n n n g * < 9 b n n n n n n b j j #.[ [ [ [ [ [ [ [ [ [ [ [ [ l.l.l.",
"l.l.:.:.:.:.:.:.:.:.:.g.j c n n n n e O O + a n n n n n n n n n n n b v x l j j j ..[ [ [ [ [ [ [ [ [ [ [ [ [ l.l.l.",
"l.l.:.:.:.:.:.:.:.:.:.u.l z n n n n b # O $ g n n n n n n n n n v l j j j j j Z o.[ [ [ [ [ [ [ [ [ [ [ [ [ [ l.l.l.",
"l.l.:.:.:.:.:.:.:.:.:.:.( l n n n n n s f b n n n n n b v x z j j j j ! F ,.$.[ [ [ [ [ [ [ [ [ [ [ [ [ [ [ [ l.l.l.",
"l.l.:.:.:.:.:.:.:.:.:.:.f.l c n n n n n n n n v c z j j j j ^ N H X.] [ [ [ [ [ [ [ [ [ [ [ [ [ [ [ [ [ [ [ [ l.l.l.",
"l.l.:.:.:.:.:.:.:.:.:.:.4.j c n n n n n b x j j j j j j G X.[ [ [ [ [ [ [ [ [ [ [ [ [ [ [ [ [ [ [ [ [ [ [ [ [ l.l.l.",
"l.l.:.:.:.:.:.:.:.:.:.:.e.j l v b c c l j j j h B J @.#.[ [ [ [ [ [ [ [ [ [ [ [ [ [ [ [ [ [ [ [ [ [ [ [ [ [ [ l.l.l.",
"l.l.:.:.:.:.:.:.:.:.:.:.;.^ j j j j k ! G >.$.[ [ [ [ [ [ [ [ [ [ [ [ [ [ [ [ [ [ [ [ [ [ [ [ [ [ [ [ [ [ [ [ l.l.l.",
"l.l.:.:.:.:.:.:.:.:.:.:.:.W l l ^ G %.[ [ [ [ [ [ [ [ [ [ [ [ [ [ [ [ [ [ [ [ [ [ [ [ [ [ [ [ [ [ [ [ [ [ [ [ l.l.l.",
"l.l.:.:.:.:.:.:.:.:.:.:.:.t.<.o.` [ [ [ [ [ [ [ [ [ [ [ [ [ [ [ [ [ [ [ [ [ [ [ [ [ [ [ [ [ [ [ [ [ [ [ [ [ [ l.l.l.",
"l.l.l.:.:.:.:.:.:.:.:.:.:.:.:.&.[ [ [ [ [ [ [ [ [ [ [ [ [ [ [ [ [ [ [ [ [ [ [ [ [ [ [ [ [ [ [ [ [ [ [ [ [ [ l.l.l.l.",
"l.l.l.l.l.l.l.l.l.l.l.l.l.l.l.l.l.l.l.l.l.l.l.l.l.l.l.l.l.l.l.l.l.l.l.l.l.l.l.l.l.l.l.l.l.l.l.l.l.l.l.l.l.l.l.l.l.l.",
"l.l.l.l.l.l.l.l.l.l.l.l.l.l.l.l.l.l.l.l.l.l.l.l.l.l.l.l.l.l.l.l.l.l.l.l.l.l.l.l.l.l.l.l.l.l.l.l.l.l.l.l.l.l.l.l.l.l.",
"l.l.l.l.l.l.l.l.l.l.l.l.l.l.l.l.l.l.l.l.l.l.l.l.l.l.l.l.l.l.l.l.l.l.l.l.l.l.l.l.l.l.l.l.l.l.l.l.l.l.l.l.l.l.l.l.l.l."
};
